<?xml version="1.0" encoding="iso-8859-1"?>
<!-- Generator: Adobe Illustrator 19.0.0, SVG Export Plug-In . SVG Version: 6.00 Build 0)  -->
<svg version="1.1" id="Layer_1" xmlns="http://www.w3.org/2000/svg" xmlns:xlink="http://www.w3.org/1999/xlink" x="0px" y="0px"
	 viewBox="0 0 512 512" style="enable-background:new 0 0 512 512;" xml:space="preserve">
<path style="fill:#B3CC96;" d="M140.51,431.68c-3.925,0-7.569-0.768-10.829-2.287c-4.309-1.98-10.112-6.451-12.902-16.35
	l-2.364-8.363l9.643-7.33c13.577-10.291,28.979-21.965,44.646-29.619l19.891-9.719l-1.51,22.093
	c-1.195,17.519-8.977,32.58-21.914,42.428C157.474,428.352,148.497,431.68,140.51,431.68L140.51,431.68z"/>
<path style="fill:#FF9F99;" d="M291.132,285.47c-38.443-53.734-8.61-155.093,12.535-201.182l3.422-7.467l8.226,0.009
	C481.801,77.026,499.2,77.052,499.2,115.196c0,13.107-10.726,20.881-25.574,31.633c-12.484,9.054-28.023,20.309-44.023,38.434
	c-7.996,9.062-14.848,18.56-21.495,27.759c-16.768,23.228-32.597,45.167-62.455,55.117c-12.646,4.215-24.158,10.564-36.241,19.977
	l-10.513,8.201L291.132,285.47z"/>
<path style="fill:#FFCFCC;" d="M253.653,165.389c-10.854-27.435-27.051-48.017-50.97-64.794l-31.949-22.417l39.014-0.87
	c14.387-0.316,29.559-0.512,46.251-0.512l50.551,0.026l-7.322,17.681c-5.188,12.527-14.831,38.11-21.146,68.762l-8.644,42.044
	L253.653,165.389z"/>
<path style="fill:#FF877F;" d="M45.602,435.196c-7.245,0-11.853-3.26-14.43-5.99c-8.081-8.525-7.364-21.709-6.076-45.636
	c0.58-10.786,1.306-24.209,1.306-39.578c0-28.979-4.642-58.283-8.371-81.826c-2.807-17.681-5.231-32.964-5.231-44.57
	c0-89.216,5.999-129.05,148.369-138.231l4.275-0.273l4.139,2.722l0.367,0.29c77.585,34.671,102.699,91.511,102.852,232.61
	c0.077,0.469,0.137,0.981,0.171,1.553l0.299,5.811l-4.173,4.045c-16.128,15.607-35.721,32.273-64.299,32.273
	c-29.338,0-55.484,19.806-80.759,38.955C98.355,416.815,74.103,435.196,45.602,435.196z"/>
<path style="fill:#573A32;" d="M460.425,67.349c-30.208-3.354-88.431-3.354-204.425-3.354c-230.852,0-256,31.087-256,153.6
	c0,12.621,2.492,28.356,5.385,46.583c3.849,24.303,8.218,51.84,8.218,79.821c0,15.019-0.683,27.699-1.289,38.886
	c-1.391,25.66-2.304,42.607,9.557,55.134c6.101,6.443,14.524,9.984,23.731,9.984c23.083,0,43.332-10.24,62.464-23.202
	c4.821,8.994,11.529,14.063,16.358,16.282c4.975,2.278,10.428,3.396,16.102,3.396c10.778,0,22.246-4.053,32.375-11.75
	c18.492-14.046,27.622-36.471,26.513-61.065c1.792-0.188,3.575-0.469,5.385-0.469c37.854,0,62.455-24.858,84.156-46.788
	c17.331-17.519,35.26-35.635,60.74-44.126c33.766-11.255,51.567-35.917,68.787-59.767c6.46-8.943,13.133-18.193,20.71-26.778
	c15.07-17.067,29.969-27.861,41.941-36.54C497.007,145.702,512,134.839,512,115.196C512,84.885,497.545,71.479,460.425,67.349z
	 M157.423,412.344c-7.697,5.828-16.7,8.073-22.323,5.453c-3.285-1.502-5.009-4.745-5.999-8.226c0.887-0.674,1.783-1.34,2.671-2.005
	c14.447-10.948,28.433-21.427,42.564-28.331C173.406,392.794,167.526,404.664,157.423,412.344z M204.8,345.596
	c-63.787,0-107.998,76.8-159.198,76.8c-14.123,0-6.4-27.204-6.4-78.404S25.6,243.196,25.6,217.596
	c0-82.987,0.555-116.702,136.388-125.457c0.563,0.367,0.998,0.879,1.638,1.152c73.847,32.597,96.375,84.625,96.375,222.703
	c0,0.324,0.162,0.597,0.188,0.922C243.601,332.983,227.243,345.596,204.8,345.596z M265.557,160.678
	c-11.452-28.937-29.116-52.045-55.518-70.562c14.293-0.316,29.372-0.512,45.961-0.512c11.145,0,21.308,0,31.403,0.009
	C279.569,108.506,271.113,133.619,265.557,160.678z M420.002,176.798c-28.1,31.838-41.387,66.859-78.404,79.198
	c-15.642,5.214-28.604,13.099-40.055,22.025c-33.903-47.377-7.825-141.372,13.756-188.39C485.794,89.835,486.4,92.045,486.4,115.196
	C486.4,128.457,453.598,138.731,420.002,176.798z"/>
<g>
</g>
<g>
</g>
<g>
</g>
<g>
</g>
<g>
</g>
<g>
</g>
<g>
</g>
<g>
</g>
<g>
</g>
<g>
</g>
<g>
</g>
<g>
</g>
<g>
</g>
<g>
</g>
<g>
</g>
</svg>
