<?xml version="1.0" encoding="iso-8859-1"?>
<!-- Generator: Adobe Illustrator 19.0.0, SVG Export Plug-In . SVG Version: 6.00 Build 0)  -->
<svg xmlns="http://www.w3.org/2000/svg" xmlns:xlink="http://www.w3.org/1999/xlink" version="1.1" id="Layer_1" x="0px" y="0px" viewBox="0 0 468.572 468.572" style="enable-background:new 0 0 468.572 468.572;" xml:space="preserve" width="512px" height="512px">
<g>
	<g>
		<g>
			<path d="M461.916,108.78c-4.608-3.072-10.24-3.072-14.848-1.024l-75.776,36.352c-31.232,14.336-66.048,18.432-99.328,10.24     l-28.16-6.656c-35.271-8.299-71.886-4.488-104.124,10.336c-0.816-17.679-0.728-35.765,0.7-53.856l0.512-4.608     c1.024-18.944,7.68-36.864,18.944-51.712c1.536-2.048,1.024-5.632-1.024-7.168c-2.048-1.536-5.632-1.024-7.168,1.024     c-3.865,5.154-7.222,10.663-10.058,16.43c-2.727-7.623-6.708-14.844-11.958-22.062c-1.536-2.048-5.12-2.56-7.168-1.024     c-2.048,1.536-2.56,4.608-1.024,6.656c7.168,10.24,11.776,19.968,13.824,31.232c0.044,0.221,0.114,0.423,0.181,0.629     c-2.534,8.092-4.152,16.485-4.789,24.971l-0.512,4.608c-0.239,4.666-0.447,9.331-0.617,13.99l-3.479-5.798     c-6.144-10.24-9.728-21.504-10.24-33.28v-3.072c-0.512-6.144-3.584-11.776-8.704-15.36c-4.798-3.359-10.496-4.469-16.25-2.91     c-2.155-2.102-4.758-3.234-7.814-3.234c-4.608,0-8.704,2.56-14.336,5.12c-8.704,4.608-20.48,10.24-38.4,11.264     C20.06,70.38,11.868,75.5,7.771,83.18c-5.12,9.728-3.584,20.992,0,27.136c5.632,9.216,14.336,14.336,25.6,14.336     c3.584,0,7.68-0.512,12.288-2.56c20.992-5.632,40.96-29.696,47.104-45.056c1.849-4.315,2.579-7.884,2.425-10.939     c2.234,0.021,4.396,0.592,6.279,1.723c2.56,1.536,4.096,4.608,4.096,7.68v3.072c1.024,13.312,5.12,26.624,11.776,37.888     l10.752,17.92c0.272,0.409,0.62,0.778,1.009,1.104c-0.078,9.092,0.057,18.13,0.527,27.056c0,0.185,0.01,0.365,0.028,0.542     c-4.02,2.203-7.962,4.576-11.804,7.138l-21.551,14.599l0.047-0.263c0.188-1.127,0.029-2.183-0.371-3.097     c0.375-7.153-3.221-14.216-10.381-19.943c-6.656-5.632-16.384-9.216-26.624-10.752c-10.24-1.024-20.48,0-28.672,3.584     c-8.704,4.096-14.336,10.24-15.36,17.92c0,0.117,0.026,0.234,0.034,0.351c-0.01,0.054-0.025,0.106-0.034,0.161l-12.8,73.216     c-6.144,35.328,1.024,71.68,20.48,102.4l8.704,13.824c21.504,33.28,57.344,54.272,96.768,56.32l9.216,0.512     c2.048,0,4.096,0,6.144,0c24.576,0,48.64-7.168,69.12-20.992l23.04-15.872c0.149-0.112,0.272-0.248,0.405-0.375     c3.536,3.073,6.058,7.281,7.275,12.151c2.015,7.555,3.036,16.099,3.556,24.174c-0.074,0.466-0.068,0.946,0.028,1.426     c1.024,7.68,7.68,14.848,24.576,14.848c2.048,0,4.096-0.512,6.656-0.512c8.704-1.024,15.872-3.072,20.48-6.144     c7.168-5.12,8.192-10.752,7.68-13.824c-0.085-0.508-0.242-0.958-0.43-1.382c2.143-47.671-10.139-82.767-34.898-96.41     c-0.494-0.282-0.992-0.55-1.493-0.812l31.701-8.916c37.888-10.24,71.68-31.232,97.792-59.392l47.616-51.2     c14.336-15.36,22.016-35.328,22.016-55.808v-17.92C468.572,116.46,466.011,111.852,461.916,108.78z M82.524,76.012     C75.356,90.348,58.46,108.78,43.1,112.876c-12.288,3.072-21.504,0.512-26.112-7.68c-2.56-4.096-3.072-11.776,0-17.408     c2.56-4.608,7.168-7.168,13.824-7.68c19.968-1.536,33.28-7.68,41.984-12.288c4.096-1.536,7.68-3.584,9.728-3.584     c0.512,0,1.024,0,2.56,2.048C85.596,66.796,85.596,69.868,82.524,76.012z M257.486,418.595c0.054-0.188,0.103-0.377,0.141-0.566     c-0.045-0.805-0.107-1.602-0.167-2.4c2.01-2.836,7.703-5.505,18.087-6.304c13.26-1.02,19.911,2.532,19.963,6.102L257.486,418.595     z M295.757,408.021c-3.592-2.3-9.744-4.018-20.209-3.305c-9.579,0.653-15.261,2.789-18.639,5.263     c-0.756-6.31-1.935-12.444-3.377-18.575c-2.56-8.704-7.68-16.384-15.36-20.48c-7.168-4.096-15.36-4.608-23.04-2.56l-8.192,2.56     c-3.072,0.512-4.608,3.584-3.584,6.144c0.512,3.072,3.584,4.608,6.144,3.584l8.192-2.56c2.332-0.699,4.663-0.952,6.995-0.802     l-18.259,12.578c-19.968,13.312-44.544,20.48-68.608,18.944l-9.216-0.512c-36.352-2.048-69.12-20.992-88.576-51.712     l-8.704-13.824c-17.92-28.16-24.576-61.952-18.944-95.232l12.8-73.216c0.078-0.47,0.09-0.925,0.056-1.365     c0.724-4.912,6.158-7.886,9.16-9.387c6.144-2.56,14.336-3.584,23.04-2.56c8.704,1.536,16.384,4.096,22.016,8.704     c3.072,2.048,7.168,6.656,6.656,11.776c0,0.247,0.035,0.494,0.072,0.739c-0.025,0.095-0.053,0.189-0.072,0.285l-2.088,11.718     c-0.201,0.549-0.312,1.127-0.307,1.724l-6.82,38.27c-4.096,23.04,0.512,46.592,13.312,66.56l5.632,8.704     c13.824,21.504,37.376,35.328,62.976,36.864l6.144,0.512c1.536,0,2.56,0,4.096,0c15.872,0,31.744-4.608,45.056-12.8     c1.017-0.61,1.696-1.467,2.067-2.433c18.214-12.107,35.85-14.676,50.157-6.783C286.455,336.133,297.16,366.72,295.757,408.021z      M457.82,140.012c0,17.92-6.656,35.328-18.944,48.64l-47.616,51.2c-6.815,7.372-14.164,14.21-21.965,20.462     c-0.016,0.008-0.035,0.01-0.051,0.018c-2.048,1.024-8.704,4.096-13.312,1.536c-3.072-1.536-4.608-5.12-5.12-10.24     c0-1.024-1.024-2.048-2.56-2.048c-1.024,0-2.048,1.024-2.048,2.56c0.512,6.656,3.072,11.264,7.68,13.824     c1.821,0.911,4.029,1.393,5.94,1.493c-18.63,13.198-39.498,23.187-61.748,29.227l-17.692,4.976     c-8.95-1.549-17.872-4.07-25.828-8.048c-1.536-0.512-3.072,0-3.584,1.024c-0.512,1.536,0,3.072,1.024,3.584     c5.595,2.633,11.406,4.835,17.56,6.485l-19.671,5.532c-13.176-0.427-27.547,4.48-41.921,14.606     c-0.605,0.454-1.058,1.052-1.382,1.721c-11.953,7.428-26.506,11.539-40.602,10.567l-6.144-0.512     c-22.528-1.024-43.52-13.312-55.296-32.256l-2.51-3.879l17.358-15.577c1.024-1.024,1.024-2.56,0-3.584     c-1.024-1.024-2.56-1.024-3.584,0l-16.557,14.859l-0.339-0.523c-11.264-17.408-15.36-38.912-11.776-59.392l6.632-37.211     l29.72-20.133c17.858-11.818,37.738-19.583,58.324-23.042c0.015,0,0.029,0.002,0.044,0.002c1.024,0,18.432-2.56,23.552,13.312     c0.512,1.024,1.536,1.536,2.56,1.536h0.512c1.024-0.512,2.048-1.536,1.536-3.072c-2.198-6.815-6.475-11.076-11.246-13.645     c14.135-0.735,28.43,0.538,42.478,3.917l28.16,7.168c22.951,5.322,46.982,5.452,69.708,0.682     c1.734,1.039,3.391,2.508,5.044,4.438c0,0.512,1.024,2.048,2.048,5.12c0.512,1.536,1.536,2.048,2.56,2.048     c0.512,0,0.512,0,1.024-1.024c1.024-0.512,2.048-1.536,1.536-3.072c-1.024-4.096-3.072-6.656-3.072-6.656     c-0.79-0.889-1.604-1.677-2.428-2.414c9.88-2.526,19.462-5.993,28.54-10.386l75.776-36.352c2.56-1.024,4.608,0,5.12,0.512     c1.024,0,2.56,1.536,2.56,4.096V140.012z" fill="#573a32"/>
			<path d="M434.78,147.692l-1.536,1.024c-1.024,1.024-1.024,2.56,0,3.584c0.512,0.512,1.536,1.024,2.048,1.024s1.024,0,1.536-0.512     l1.536-1.536c1.024-1.024,1.024-2.56,0-3.584C437.34,146.668,435.803,146.668,434.78,147.692z" fill="#573a32"/>
			<path d="M428.635,152.812l-2.048,2.048c-1.024,1.024-1.024,2.56,0,3.584c0.512,0.512,1.536,1.024,2.048,1.024     s1.024,0,1.536-1.024l2.048-2.048c1.024-1.024,1.024-2.56,0-3.584S429.659,151.788,428.635,152.812z" fill="#573a32"/>
			<path d="M419.932,161.004l-9.728,8.704c-1.024,1.024-1.024,2.56,0,3.584c0.512,0.512,1.536,1.024,2.048,1.024     c0.512,0,1.024-0.512,1.536-1.024l9.728-8.704c1.024-1.024,1.024-2.56,0-3.584S420.956,159.98,419.932,161.004z" fill="#573a32"/>
			<path d="M397.916,180.972l-7.168,6.656c-1.411,1.302-2.878,2.52-4.381,3.679c1.328-6.278-1.36-12.304-3.811-15.455     c-1.024-1.024-2.56-1.536-3.584-0.512c-1.024,1.024-1.536,2.56-0.512,3.584c0.512,0,7.168,9.728-0.512,17.408     c-0.206,0.206-0.358,0.435-0.481,0.674c-3.097,1.602-6.346,2.931-9.759,3.934c-1.024,0.512-2.048,1.536-1.536,3.072     c0.512,1.024,1.536,1.536,2.56,1.536h0.512c9.728-3.072,17.92-7.68,25.088-14.336l7.168-6.656c1.024-1.024,1.024-2.56,0-3.584     S398.94,179.948,397.916,180.972z" fill="#573a32"/>
			<path d="M359.516,202.476c-4.096,1.024-8.192,1.024-12.8,1.024c-13.159-0.346-26.081,1.892-38.297,6.382     c3.292-6.684,3.159-14.117,1.945-18.67c-0.512-1.536-1.536-2.56-3.072-2.048c-1.536,0.512-2.56,1.536-2.048,3.072     c0,0.9,3.157,14.051-6.494,21.745c-2.48,1.194-4.928,2.472-7.33,3.855L272.475,229.1c-1.171,0.676-2.363,1.302-3.564,1.906     c-0.177,0.048-0.354,0.093-0.532,0.142c-0.267,0.134-0.533,0.304-0.772,0.507c-8.566,4.083-17.806,6.332-27.104,6.504     c4.106-3.328,6.853-7.879,7.909-13.155c0-1.536-0.512-2.56-2.048-3.072c-1.536,0-2.56,0.512-3.072,2.048     c-1.536,6.144-5.12,10.752-11.264,13.312c-0.189,0.126-0.362,0.252-0.52,0.379c-0.852-0.11-1.703-0.233-2.552-0.379     c-1.536-0.512-3.072,0.512-3.072,2.048c-0.512,1.536,0.512,3.072,2.048,3.072c4.096,0.512,7.68,1.024,11.776,1.024     c11.409,0,22.376-2.653,32.493-7.95c7.364-1.866,15.083-2.175,22.803-1.266c1.536,0.512,3.072-0.512,3.072-2.048     c0.512-1.536-0.512-3.072-2.048-3.072c-3.937-0.656-7.874-0.842-11.811-0.643l9.251-5.501     c16.384-9.216,34.304-14.336,53.248-13.824c4.608,0,9.216-0.512,13.824-1.536c1.536-0.512,2.048-1.536,2.048-3.072     C362.076,202.988,361.052,202.476,359.516,202.476z" fill="#573a32"/>
			<path d="M243.804,214.252c0,1.536,0.512,2.56,2.048,3.072h0.512c1.536,0,2.56-0.512,2.56-2.048c1.536-6.656,0-12.8,0-13.312     c-0.512-1.536-1.536-2.56-3.072-2.048c-1.536,0.512-2.56,1.536-2.048,3.072C243.804,202.988,245.339,208.62,243.804,214.252z" fill="#573a32"/>
			<path d="M311.388,233.196c-1.536-0.512-3.072-1.024-4.608-1.536c-1.024-0.512-2.56,0-3.072,1.536     c-0.512,1.024,0,2.56,1.536,3.072c1.536,0.512,2.56,1.024,4.096,1.536c0.512,0,0.512,0,1.024,0c1.024,0,2.048-0.512,2.56-1.536     S312.924,233.708,311.388,233.196z" fill="#573a32"/>
			<path d="M220.764,255.724c-1.024-1.024-2.56-0.512-3.584,0.512c-1.024,1.024-0.512,2.56,0.512,3.584l1.024,0.512     c0.512,0.512,1.024,0.512,1.536,0.512c1.024,0,1.536,0,2.048-0.512c0.512-1.024,0.512-2.56-0.512-3.584L220.764,255.724z" fill="#573a32"/>
			<path d="M212.572,250.092c-5.639-3.525-11.531-6.548-17.823-8.935c7.743-1.033,15.619-1.152,23.455-0.281     c1.024,0.512,2.56-0.512,2.56-2.048c0.512-1.024-0.512-2.56-2.048-2.56c-18.315-2.249-36.629,0.747-53.173,8.098     c3.065-8.6-1.735-19.097-2.123-19.874c-1.024-1.024-2.56-1.536-3.584-1.024c-1.024,1.024-1.536,2.56-1.024,3.584     c0,0.512,7.168,15.36-1.536,20.992c-0.239,0.239-0.446,0.507-0.616,0.788c-6.503,3.66-12.655,8.022-18.328,13.036l-11.776,10.24     c-1.024,1.024-1.024,2.56,0,3.584c0.512,0.512,1.536,1.024,2.048,1.024s1.024,0,1.024-1.024l5.906-5.136     c0.079,0.006,0.159,0.016,0.238,0.016h0c8.192-2.56,16.896-3.072,25.6-2.048c1.536,0.512,3.072-0.512,3.072-2.048     c0.512-1.536-0.512-3.072-2.048-3.072c-6.224-1.037-12.448-0.904-18.673,0.079c11.849-9.786,25.789-16.737,40.537-20.344     c0.199,0.111,0.413,0.214,0.664,0.297c9.216,2.56,17.92,6.144,25.6,11.264c0.512,0.512,1.024,0.512,1.536,0.512     c1.024,0,1.536-0.512,1.024-1.536C214.107,252.652,213.596,250.604,212.572,250.092z" fill="#573a32"/>
			<path d="M246.364,288.492l-1.024-0.512c-1.024-0.512-2.56,0-3.584,1.024c-0.512,1.024,0,3.072,1.024,3.584l1.024,1.024     c0.512,0.512,1.024,0.512,1.536,0.512c1.024,0,1.536,0,2.048-2.048C247.9,291.052,247.388,289.004,246.364,288.492z" fill="#573a32"/>
		</g>
	</g>
</g>
<g>
</g>
<g>
</g>
<g>
</g>
<g>
</g>
<g>
</g>
<g>
</g>
<g>
</g>
<g>
</g>
<g>
</g>
<g>
</g>
<g>
</g>
<g>
</g>
<g>
</g>
<g>
</g>
<g>
</g>
</svg>
